<svg width="240" height="240" viewBox="0 0 240 240" fill="none" xmlns="http://www.w3.org/2000/svg">
<rect width="240" height="240" fill="white"/>
<path d="M120 185.206C122.183 185.206 124.263 184.686 126.238 183.543L149.007 170.443C153.581 167.844 158.884 166.7 164.186 167.324C191.841 170.547 211.179 175.745 216.897 177.409C218.041 177.72 219.392 177.305 220.12 176.369C221.056 175.225 222.199 173.354 223.135 170.651C223.967 168.052 224.071 165.868 223.967 164.309C223.863 163.061 223.031 161.917 221.783 161.606C212.842 159.006 173.231 148.298 120 148.298C66.769 148.298 27.1577 159.006 18.2166 161.606C16.969 161.917 16.1372 163.061 16.0333 164.309C15.9293 165.764 16.0333 167.948 16.865 170.651C17.6967 173.354 18.9443 175.225 19.88 176.369C20.6078 177.305 21.9594 177.72 23.103 177.409C28.8212 175.745 48.263 170.547 75.8141 167.324C81.1164 166.7 86.4187 167.844 90.9933 170.443L113.762 183.543C115.737 184.686 117.817 185.206 120 185.206Z" fill="#0062E3"/>
<path d="M82.0522 111.494C83.2998 113.677 85.2751 115.132 87.5624 115.756C89.8497 116.38 92.2409 116.068 94.4242 114.821C96.6075 113.573 98.063 111.598 98.6868 109.31C99.3106 107.023 98.9987 104.632 97.7511 102.448L77.2697 66.9958C76.6459 65.8522 75.2943 65.4363 74.0467 65.5403C72.3832 65.6443 70.096 66.476 67.3928 68.0355C64.6897 69.595 62.8183 71.1545 61.8826 72.5061C61.1548 73.5457 60.9469 74.8973 61.5707 76.0409L82.0522 111.494Z" fill="#0062E3"/>
<path d="M63.3381 136.862C65.5214 138.109 68.0166 138.317 70.1999 137.797C72.3832 137.277 74.4626 135.718 75.7102 133.535C76.9578 131.351 77.1657 128.856 76.6459 126.673C76.126 124.489 74.5665 122.41 72.3832 121.163L36.9306 100.785C35.7869 100.161 34.4354 100.369 33.3957 101.097C32.0441 102.033 30.4846 103.904 28.9251 106.607C27.3656 109.31 26.5339 111.598 26.4299 113.261C26.326 114.613 26.8458 115.86 27.8855 116.484L63.3381 136.862Z" fill="#0062E3"/>
<path d="M129.045 98.9136C129.045 101.409 128.005 103.696 126.446 105.36C124.782 107.023 122.599 107.959 120 107.959C117.401 107.959 115.218 106.919 113.554 105.36C111.891 103.696 110.955 101.513 110.955 98.9136V58.0547C110.955 56.7031 111.787 55.6635 113.034 55.1436C114.49 54.4159 116.881 54 120 54C123.119 54 125.51 54.4159 126.966 55.1436C128.109 55.7674 129.045 56.7031 129.045 58.0547V98.9136Z" fill="#0062E3"/>
<path d="M157.948 111.494C156.7 113.677 154.725 115.132 152.438 115.756C150.15 116.38 147.759 116.068 145.576 114.821C143.393 113.573 141.937 111.598 141.313 109.31C140.689 107.023 141.001 104.632 142.249 102.448L162.73 66.9958C163.354 65.8522 164.706 65.4363 165.953 65.5403C167.617 65.6443 169.904 66.476 172.607 68.0355C175.31 69.595 177.182 71.1545 178.117 72.5061C178.845 73.5457 179.053 74.8973 178.429 76.0409L157.948 111.494Z" fill="#0062E3"/>
<path d="M176.662 136.862C174.479 138.109 171.983 138.317 169.8 137.797C167.617 137.277 165.537 135.718 164.29 133.535C163.042 131.351 162.834 128.856 163.354 126.673C163.874 124.489 165.433 122.41 167.617 121.163L203.069 100.681C204.213 100.057 205.565 100.265 206.604 100.993C207.956 101.929 209.515 103.8 211.075 106.503C212.634 109.206 213.466 111.494 213.57 113.157C213.674 114.509 213.154 115.756 212.115 116.38L176.662 136.862Z" fill="#0062E3"/>
</svg>
